<?xml version="1.0" encoding="UTF-8"?>
<svg width="60px" height="53px" viewBox="0 0 60 53" version="1.1" xmlns="http://www.w3.org/2000/svg" xmlns:xlink="http://www.w3.org/1999/xlink">
    <!-- Generator: Sketch 47.1 (45422) - http://www.bohemiancoding.com/sketch -->
    <title>ic-greatercontrol</title>
    <desc>Created with Sketch.</desc>
    <defs>
        <linearGradient x1="127.044271%" y1="11.2875884%" x2="40.8545779%" y2="6.82319999%" id="linearGradient-1">
            <stop stop-color="#36D4ED" offset="0%"></stop>
            <stop stop-color="#FFFFFF" stop-opacity="0" offset="100%"></stop>
        </linearGradient>
        <linearGradient x1="-14.8462865%" y1="50%" x2="55.9110164%" y2="50%" id="linearGradient-2">
            <stop stop-color="#FFFFFF" stop-opacity="0" offset="0%"></stop>
            <stop stop-color="#73CF45" offset="76.8847693%"></stop>
            <stop stop-color="#04AA51" offset="100%"></stop>
        </linearGradient>
        <linearGradient x1="-2.48949813e-15%" y1="50%" x2="100%" y2="50%" id="linearGradient-3">
            <stop stop-color="#27A0B6" offset="0%"></stop>
            <stop stop-color="#36D4ED" offset="100%"></stop>
        </linearGradient>
    </defs>
    <g id="PO_FLOW" stroke="none" stroke-width="1" fill="none" fill-rule="evenodd">
        <g id="11-01-PO-FINAL" transform="translate(-1074.000000, -1385.000000)">
            <g id="ic-greatercontrol" transform="translate(1074.000000, 1382.000000)">
                <rect id="Rectangle" x="0" y="0" width="60" height="60"></rect>
                <rect id="Rectangle-3" fill="url(#linearGradient-1)" x="0" y="24" width="60" height="14" rx="7"></rect>
                <rect id="Rectangle-3-Copy" fill="url(#linearGradient-1)" x="0" y="3" width="60" height="14" rx="7"></rect>
                <rect id="Rectangle-3-Copy-2" fill="url(#linearGradient-1)" x="0" y="42" width="60" height="14" rx="7"></rect>
                <path d="M8,11.5 L55.4470588,11.5 C56.2754859,11.5 56.9470588,10.8284271 56.9470588,10 C56.9470588,9.17157288 56.2754859,8.5 55.4470588,8.5 L8,8.5 C7.17157288,8.5 6.5,9.17157288 6.5,10 C6.5,10.8284271 7.17157288,11.5 8,11.5 Z" id="Line-6" fill="url(#linearGradient-2)" fill-rule="nonzero"></path>
                <path d="M1.9,32.5 L55,32.5 C55.8284271,32.5 56.5,31.8284271 56.5,31 C56.5,30.1715729 55.8284271,29.5 55,29.5 L1.9,29.5 C1.07157288,29.5 0.4,30.1715729 0.4,31 C0.4,31.8284271 1.07157288,32.5 1.9,32.5 Z" id="Line-6-Copy" fill="url(#linearGradient-2)" fill-rule="nonzero"></path>
                <path d="M6,50.5 L54.4470588,50.5 C55.2754859,50.5 55.9470588,49.8284271 55.9470588,49 C55.9470588,48.1715729 55.2754859,47.5 54.4470588,47.5 L6,47.5 C5.17157288,47.5 4.5,48.1715729 4.5,49 C4.5,49.8284271 5.17157288,50.5 6,50.5 Z" id="Line-6-Copy-2" fill="url(#linearGradient-2)" fill-rule="nonzero"></path>
                <circle id="Oval-8" fill="url(#linearGradient-3)" cx="7" cy="10" r="5"></circle>
                <circle id="Oval-8-Copy" fill="url(#linearGradient-3)" cx="53" cy="31" r="5"></circle>
                <circle id="Oval-8-Copy-2" fill="url(#linearGradient-3)" cx="7" cy="49" r="5"></circle>
            </g>
        </g>
    </g>
</svg>