<?xml version="1.0" encoding="UTF-8"?>
<svg width="61px" height="59px" viewBox="0 0 61 59" version="1.1" xmlns="http://www.w3.org/2000/svg" xmlns:xlink="http://www.w3.org/1999/xlink">
    <!-- Generator: Sketch 47.1 (45422) - http://www.bohemiancoding.com/sketch -->
    <title>ic-fasterbuilds </title>
    <desc>Created with Sketch.</desc>
    <defs>
        <linearGradient x1="58.2125756%" y1="-50.6520917%" x2="54.0448606%" y2="61.797505%" id="linearGradient-1">
            <stop stop-color="#27A0B6" offset="0%"></stop>
            <stop stop-color="#36D4ED" stop-opacity="0" offset="100%"></stop>
        </linearGradient>
        <linearGradient x1="-2.48949813e-15%" y1="50%" x2="100%" y2="50%" id="linearGradient-2">
            <stop stop-color="#27A0B6" offset="0%"></stop>
            <stop stop-color="#36D4ED" offset="100%"></stop>
        </linearGradient>
        <linearGradient x1="0%" y1="100%" x2="96.4135742%" y2="4.02526855%" id="linearGradient-3">
            <stop stop-color="#27A0B6" offset="0%"></stop>
            <stop stop-color="#36D4ED" offset="100%"></stop>
        </linearGradient>
        <linearGradient x1="100%" y1="50%" x2="6.18963596%" y2="50%" id="linearGradient-4">
            <stop stop-color="#73CF45" offset="0%"></stop>
            <stop stop-color="#04AA51" offset="100%"></stop>
        </linearGradient>
    </defs>
    <g id="PO_FLOW" stroke="none" stroke-width="1" fill="none" fill-rule="evenodd">
        <g id="11-01-PO-FINAL" transform="translate(-291.000000, -1382.000000)">
            <g id="ic-fasterbuilds-" transform="translate(291.000000, 1382.000000)">
                <rect id="Rectangle-11" opacity="0.200000003" x="1" y="1.98360656" width="60" height="60"></rect>
                <circle id="Oval-6" fill="url(#linearGradient-1)" opacity="0.767374067" cx="30.5" cy="30.5" r="30.5"></circle>
                <g id="tempometer.1-copy" transform="translate(2.000000, 2.000000)">
                    <g id="Group">
                        <path d="M21.147541,37.1311475 L2.70491803,37.1311475 C2.02622951,37.1311475 1.47540984,36.5803279 1.47540984,35.9016393 C1.47540984,35.2229508 2.02622951,34.6721311 2.70491803,34.6721311 L21.147541,34.6721311 C21.8262295,34.6721311 22.3770492,35.2229508 22.3770492,35.9016393 C22.3770492,36.5803279 21.8262295,37.1311475 21.147541,37.1311475 Z" id="Shape" fill="url(#linearGradient-2)" fill-rule="nonzero"></path>
                        <path d="M32.5163934,28.5163934 L41.5163934,21.5163934" id="Line-4" stroke="url(#linearGradient-3)" stroke-width="3" stroke-linecap="round" stroke-linejoin="round"></path>
                        <path d="M54.3442623,37.1311475 L35.9016393,37.1311475 C35.2229508,37.1311475 34.6721311,36.5803279 34.6721311,35.9016393 C34.6721311,32.5106557 31.9155738,29.7540984 28.5245902,29.7540984 C25.1336066,29.7540984 22.3770492,32.5106557 22.3770492,35.9016393 C22.3770492,36.5803279 21.8262295,37.1311475 21.147541,37.1311475 C20.4688525,37.1311475 19.9180328,36.5803279 19.9180328,35.9016393 C19.9180328,31.1557377 23.7786885,27.295082 28.5245902,27.295082 C32.852459,27.295082 36.445082,30.5065574 37.045082,34.6721311 L54.3442623,34.6721311 C55.0229508,34.6721311 55.5737705,35.2229508 55.5737705,35.9016393 C55.5737705,36.5803279 55.0229508,37.1311475 54.3442623,37.1311475 Z" id="Shape" fill="url(#linearGradient-2)" fill-rule="nonzero"></path>
                        <path d="M28.5245902,56.8032787 C12.9319672,56.8032787 0.245901639,44.1172131 0.245901639,28.5245902 C0.245901639,12.9319672 12.9319672,0.245901639 28.5245902,0.245901639 C44.1172131,0.245901639 56.8032787,12.9319672 56.8032787,28.5245902 C56.8032787,44.1172131 44.1172131,56.8032787 28.5245902,56.8032787 Z M28.5245902,2.70491803 C14.2868852,2.70491803 2.70491803,14.2868852 2.70491803,28.5245902 C2.70491803,42.7622951 14.2868852,54.3442623 28.5245902,54.3442623 C42.7622951,54.3442623 54.3442623,42.7622951 54.3442623,28.5245902 C54.3442623,14.2868852 42.7622951,2.70491803 28.5245902,2.70491803 Z" id="Shape" fill="url(#linearGradient-4)" fill-rule="nonzero"></path>
                        <path d="M28.5245902,7.62295082 C27.8459016,7.62295082 27.295082,7.07213115 27.295082,6.39344262 L27.295082,1.47540984 C27.295082,0.796721311 27.8459016,0.245901639 28.5245902,0.245901639 C29.2032787,0.245901639 29.7540984,0.796721311 29.7540984,1.47540984 L29.7540984,6.39344262 C29.7540984,7.07213115 29.2032787,7.62295082 28.5245902,7.62295082 Z" id="Shape" fill="url(#linearGradient-4)" fill-rule="nonzero"></path>
                        <path d="M17.4590164,10.5885246 C17.0360656,10.5885246 16.6204918,10.3672131 16.3942623,9.97377049 L13.9352459,5.7147541 C13.5959016,5.12459016 13.797541,4.37459016 14.3852459,4.0352459 C14.9704918,3.69098361 15.7254098,3.89508197 16.0647541,4.4852459 L18.5237705,8.7442623 C18.8631148,9.33196721 18.6614754,10.0844262 18.0737705,10.4237705 C17.8795082,10.5368852 17.6680328,10.5885246 17.4590164,10.5885246 Z" id="Shape" fill="url(#linearGradient-4)" fill-rule="nonzero"></path>
                        <path d="M9.35901639,18.6885246 C9.15,18.6885246 8.93852459,18.6368852 8.7442623,18.5237705 L4.4852459,16.0647541 C3.89508197,15.7254098 3.69344262,14.9729508 4.0352459,14.3852459 C4.37459016,13.797541 5.12704918,13.5983607 5.7147541,13.9352459 L9.97377049,16.3942623 C10.5614754,16.7336066 10.7631148,17.4860656 10.4237705,18.0737705 C10.197541,18.4672131 9.78196721,18.6885246 9.35901639,18.6885246 Z" id="Shape" fill="url(#linearGradient-4)" fill-rule="nonzero"></path>
                        <path d="M6.39344262,29.7540984 L1.47540984,29.7540984 C0.796721311,29.7540984 0.245901639,29.2032787 0.245901639,28.5245902 C0.245901639,27.8459016 0.796721311,27.295082 1.47540984,27.295082 L6.39344262,27.295082 C7.07213115,27.295082 7.62295082,27.8459016 7.62295082,28.5245902 C7.62295082,29.2032787 7.07213115,29.7540984 6.39344262,29.7540984 Z" id="Shape" fill="url(#linearGradient-4)" fill-rule="nonzero"></path>
                        <path d="M55.5737705,29.7540984 L50.6557377,29.7540984 C49.9770492,29.7540984 49.4262295,29.2032787 49.4262295,28.5245902 C49.4262295,27.8459016 49.9770492,27.295082 50.6557377,27.295082 L55.5737705,27.295082 C56.252459,27.295082 56.8032787,27.8459016 56.8032787,28.5245902 C56.8032787,29.2032787 56.252459,29.7540984 55.5737705,29.7540984 Z" id="Shape" fill="url(#linearGradient-4)" fill-rule="nonzero"></path>
                        <path d="M47.6901639,18.6885246 C47.2672131,18.6885246 46.8516393,18.4672131 46.6254098,18.0737705 C46.2836066,17.4860656 46.4852459,16.7336066 47.0754098,16.3942623 L51.3344262,13.9352459 C51.9196721,13.5934426 52.6745902,13.792623 53.0139344,14.3852459 C53.3557377,14.9729508 53.1540984,15.7254098 52.5639344,16.0647541 L48.304918,18.5237705 C48.1106557,18.6368852 47.8991803,18.6885246 47.6901639,18.6885246 Z" id="Shape" fill="url(#linearGradient-4)" fill-rule="nonzero"></path>
                        <path d="M39.5901639,10.5885246 C39.3811475,10.5885246 39.1696721,10.5368852 38.9754098,10.4237705 C38.3877049,10.0844262 38.1860656,9.33442623 38.5254098,8.7442623 L40.9844262,4.4852459 C41.3237705,3.89754098 42.0762295,3.69836066 42.6639344,4.0352459 C43.2516393,4.37459016 43.4532787,5.12459016 43.1139344,5.7147541 L40.654918,9.97377049 C40.4286885,10.3672131 40.0131148,10.5885246 39.5901639,10.5885246 Z" id="Shape" fill="url(#linearGradient-4)" fill-rule="nonzero"></path>
                        <path d="M28.515,37 C27.687,37 27,36.328 27,35.5 C27,34.672 27.657,34 28.482,34 L28.515,34 C29.34,34 30.015,34.672 30.015,35.5 C30.015,36.328 29.343,37 28.515,37 Z" id="Shape" fill="url(#linearGradient-2)" fill-rule="nonzero"></path>
                    </g>
                </g>
            </g>
        </g>
    </g>
</svg>